<?xml version="1.0" standalone="no"?>
<!DOCTYPE svg PUBLIC "-//W3C//DTD SVG 20010904//EN"
 "http://www.w3.org/TR/2001/REC-SVG-20010904/DTD/svg10.dtd">
<svg version="1.0" xmlns="http://www.w3.org/2000/svg"
 width="512.000000pt" height="512.000000pt" viewBox="0 0 512.000000 512.000000"
 preserveAspectRatio="xMidYMid meet">

<g transform="translate(0.000000,512.000000) scale(0.100000,-0.100000)"
fill="#000000" stroke="none">
<path d="M698 5110 c-183 -33 -335 -113 -463 -245 -315 -323 -311 -841 9
-1161 253 -253 631 -314 951 -155 178 89 287 198 376 376 232 466 -17 1022
-523 1165 -82 24 -273 35 -350 20z m82 -422 l50 -25 49 24 c66 33 143 40 216
19 74 -22 153 -97 178 -170 53 -156 -13 -328 -191 -498 -101 -96 -217 -178
-252 -178 -35 0 -151 82 -252 178 -178 170 -244 342 -191 498 23 67 104 147
169 168 68 22 161 15 224 -16z"/>
<path d="M594 4545 c-75 -39 -85 -147 -23 -250 37 -63 152 -184 217 -229 l42
-29 42 29 c65 45 180 166 217 229 64 105 52 213 -27 251 -45 21 -92 13 -145
-23 -22 -15 -50 -34 -63 -41 -27 -15 -37 -11 -112 41 -50 35 -106 43 -148 22z"/>
<path d="M3490 4954 c-533 -66 -959 -409 -1125 -907 -47 -142 -65 -255 -65
-417 0 -371 128 -681 389 -941 261 -261 571 -389 941 -389 162 0 276 18 417
65 459 153 785 526 890 1016 27 130 25 382 -6 518 -56 254 -164 458 -339 642
-252 265 -562 404 -922 413 -80 3 -161 2 -180 0z m446 -569 c93 -55 148 -186
166 -400 l12 -135 120 0 c137 0 182 -9 226 -47 43 -35 60 -74 60 -130 -1 -70
-152 -687 -176 -720 -31 -41 -68 -64 -115 -74 -24 -4 -202 -8 -395 -9 -346 0
-351 0 -435 25 l-84 25 -19 -25 c-36 -50 -59 -55 -273 -55 -179 0 -201 2 -230
20 -64 39 -64 37 -61 485 l3 405 33 32 32 33 225 0 224 0 31 -30 c19 -18 33
-43 37 -68 4 -28 10 -37 20 -33 8 4 27 6 43 6 25 0 38 14 108 118 43 64 100
154 126 199 l48 83 -3 112 c-1 62 1 123 5 135 4 12 29 32 58 47 71 36 154 36
214 1z"/>
<path d="M3820 4149 l0 -102 -56 -101 c-63 -113 -195 -310 -247 -371 l-35 -40
-81 0 -81 0 2 -225 3 -224 85 -27 85 -27 351 -1 c270 -1 354 2 362 12 15 18
155 615 148 632 -4 12 -36 15 -186 15 -167 0 -181 1 -200 20 -11 11 -20 23
-21 28 0 4 -1 72 -3 152 -5 215 -44 350 -104 358 -21 3 -22 1 -22 -99z"/>
<path d="M2890 3330 l0 -330 135 0 135 0 0 330 0 330 -135 0 -135 0 0 -330z"/>
<path d="M222 3110 c-65 -40 -62 12 -62 -1092 0 -983 0 -1004 20 -1036 41 -68
59 -72 307 -72 122 0 229 -3 238 -6 39 -15 45 -53 45 -289 0 -124 2 -225 5
-225 3 0 107 59 232 131 126 73 318 184 428 247 110 63 209 121 220 128 16 12
151 14 740 14 796 0 761 -3 809 63 21 28 21 40 24 621 l3 593 -93 32 c-308
108 -576 316 -754 587 -51 78 -130 230 -152 293 l-11 31 -983 0 c-968 0 -983
0 -1016 -20z m1660 -283 c94 -46 167 -121 199 -205 31 -81 38 -255 15 -355
-23 -95 -85 -219 -141 -284 -37 -42 -44 -57 -39 -77 3 -14 13 -27 22 -30 10
-3 78 -21 152 -41 310 -85 341 -132 332 -508 -2 -100 -4 -110 -27 -132 -26
-27 -70 -32 -96 -12 -34 26 -39 54 -38 214 2 168 -4 201 -43 227 -13 9 -102
36 -198 62 -96 25 -186 51 -200 58 -15 7 -31 28 -41 55 l-16 43 -71 1 -72 2
-6 -33 c-11 -55 -38 -70 -200 -112 -299 -77 -288 -65 -292 -311 -4 -178 -4
-179 -29 -199 -34 -27 -66 -25 -100 4 l-28 24 0 179 c1 335 25 360 462 473 61
15 61 41 0 109 -117 130 -183 353 -157 530 24 170 115 285 269 339 55 19 82
22 167 20 93 -3 106 -6 176 -41z"/>
<path d="M1600 2701 c-49 -16 -87 -40 -118 -75 -118 -134 -42 -490 127 -598
76 -48 133 -35 213 47 82 85 128 211 128 349 -1 140 -37 213 -127 257 -51 25
-174 36 -223 20z"/>
<path d="M4120 1641 c-155 -33 -292 -106 -405 -216 -111 -109 -184 -230 -227
-381 -32 -113 -32 -315 0 -427 74 -258 250 -456 492 -554 119 -48 173 -58 315
-57 99 1 148 6 207 22 378 103 635 456 615 842 -12 219 -95 401 -252 555 -197
192 -475 273 -745 216z m541 -394 c67 -45 69 -54 69 -417 0 -358 -2 -369 -63
-414 -27 -20 -43 -21 -365 -24 -377 -3 -383 -2 -429 67 -23 34 -23 37 -23 370
0 318 1 338 20 369 11 18 34 41 52 52 31 19 51 20 369 20 333 0 336 0 370 -23z"/>
<path d="M4010 830 l0 -280 280 0 280 0 0 280 0 280 -280 0 -280 0 0 -280z
m444 209 c76 -35 42 -149 -45 -149 -31 0 -69 44 -69 80 0 36 38 80 69 80 11 0
31 -5 45 -11z"/>
</g>
</svg>
